<svg xmlns="http://www.w3.org/2000/svg" version="1.1" xmlns:xlink="http://www.w3.org/1999/xlink" width="128" height="128"><svg xmlns:dc="http://purl.org/dc/elements/1.1/" xmlns:cc="http://creativecommons.org/ns#" xmlns:rdf="http://www.w3.org/1999/02/22-rdf-syntax-ns#" xmlns:svg="http://www.w3.org/2000/svg" xmlns="http://www.w3.org/2000/svg" xmlns:sodipodi="http://sodipodi.sourceforge.net/DTD/sodipodi-0.dtd" xmlns:inkscape="http://www.inkscape.org/namespaces/inkscape" width="128" height="128" id="SvgjsSvg1019" version="1.1" inkscape:version="0.48.4 r9939" sodipodi:docname="logo.svg" inkscape:export-filename="/home/ybon/Code/projects/umap/umap/static/umap/img/logo_filigree.png" inkscape:export-xdpi="115.2" inkscape:export-ydpi="115.2">
  <defs id="SvgjsDefs1018"></defs>
  <sodipodi:namedview id="SvgjsSodipodi:namedview1017" pagecolor="#ffffff" bordercolor="#666666" borderopacity="1.0" inkscape:pageopacity="0.0" inkscape:pageshadow="2" inkscape:zoom="4" inkscape:cx="58.405952" inkscape:cy="60.011122" inkscape:document-units="px" inkscape:current-layer="layer1" showgrid="true" inkscape:snap-page="false" inkscape:window-width="1366" inkscape:window-height="744" inkscape:window-x="0" inkscape:window-y="24" inkscape:window-maximized="1">
    <inkscape:grid type="xygrid" id="SvgjsInkscape:grid1016" empspacing="4" visible="true" enabled="true" snapvisiblegridlinesonly="true" empcolor="#00003b" empopacity="0.25098039"></inkscape:grid>
  </sodipodi:namedview>
  <metadata id="SvgjsMetadata1015">
    <rdf:rdf>
      <cc:work rdf:about="">
        <dc:format>image/svg+xml</dc:format>
        <dc:type rdf:resource="http://purl.org/dc/dcmitype/StillImage"></dc:type>
        <dc:title></dc:title>
      </cc:work>
    </rdf:rdf>
  </metadata>
  <g inkscape:label="Layer 1" inkscape:groupmode="layer" id="SvgjsG1014" transform="translate(0,-924.36218)">
    <g style="stroke:none;display:block" id="SvgjsG1013" transform="matrix(0.08798405,0,0,0.08595212,-111.80137,1023.2879)" inkscape:export-filename="/home/ybon/Work/osmtouch64.png" inkscape:export-xdpi="28.799999" inkscape:export-ydpi="28.799999"></g>
    <path style="fill:#323e56;fill-opacity:1;fill-rule:nonzero;stroke:none" d="M 36.53125 6.1875 C 14.931315 16.467669 0 38.485908 0 64 C 0 99.346224 28.653776 128 64 128 C 14.531697 81.829584 3.1418965 24.79152 36.53125 6.1875 z M 64 128 C 99.346224 128 128 99.346224 128 64 C 128 38.485908 113.06868 16.467669 91.46875 6.1875 C 124.8581 24.79152 113.4683 81.829584 64 128 z " transform="translate(0,924.36218)" id="SvgjsPath1012"></path>
    <g id="SvgjsG1011" transform="matrix(2.56,0,0,2.56,-181.12,-1367.765)" style="fill:#ffffff;stroke:none"></g>
    <path sodipodi:type="arc" style="fill:#323e56;fill-opacity:1;fill-rule:nonzero;stroke:none" id="SvgjsPath1010" sodipodi:cx="70" sodipodi:cy="18" sodipodi:rx="18" sodipodi:ry="18" d="M 88,18 C 88,27.941125 79.941125,36 70,36 60.058875,36 52,27.941125 52,18 52,8.0588745 60.058875,0 70,0 79.941125,0 88,8.0588745 88,18 z" transform="matrix(1.3142697,0,0,1.3142697,-27.998878,934.52855)"></path>
  </g>
</svg><style>@media (prefers-color-scheme: light) { :root { filter: none; } }
@media (prefers-color-scheme: dark) { :root { filter: none; } }
</style></svg>